#!OML:ASF H:\ManfredETheater\Project 1\Capture day 1\Session 1\subject.ASF
:FULLY-SPECIFIED
:DEGREES
319
root 0.977979 16.1036 -42.264 199.972 -5.69468 -186.553
lowerback 18.5461 0.0918428 -8.14798
upperback -0.0995352 -2.0567 -1.57808
thorax -10.3596 -0.696931 3.46689
lowerneck -18.3726 -5.44145 -6.42194
upperneck 4.0771 -6.87941 8.72361
head 4.69708 -3.07374 3.10429
rclavicle 2.37548e-014 5.64548e-014
rhumerus -49.7066 -1.91243 -83.6997
rradius 60.6204
rwrist -12.6673
rhand -27.8278 -2.99912
rfingers 7.12502
rthumb -1.21957 -32.9754
lclavicle 2.37548e-014 5.64548e-014
lhumerus -28.9307 -8.15617 89.7901
lradius 92.155
lwrist 3.73758
lhand -26.7372 -10.2029
lfingers 7.12502
lthumb -0.166286 19.7768
rfemur -45.0644 -17.0208 13.0424
rtibia 86.2001
rfoot -18.914 -9.6905
rtoes -35.4429
lfemur -22.9085 -0.938843 -20.9922
ltibia 58.5235
lfoot -33.5091 2.00433
ltoes -7.5258
320
root 0.970317 16.01 -42.3661 200.331 -5.19874 -186.991
lowerback 19.1023 0.282407 -8.66186
upperback 0.157098 -2.03385 -1.79964
thorax -10.3856 -0.691478 3.52163
lowerneck -18.3196 -5.46051 -6.60678
upperneck 3.01493 -6.88587 8.96335
head 4.37504 -3.11135 3.21582
rclavicle -7.95139e-016 2.64384e-014
rhumerus -50.0705 -2.77036 -83.2666
rradius 59.022
rwrist -13.7481
rhand -27.6512 -3.68264
rfingers 7.12502
rthumb -1.04906 -33.6598
lclavicle -7.95139e-016 2.64384e-014
lhumerus -27.6151 -8.43441 90.2144
lradius 93.8454
lwrist 3.53492
lhand -27.136 -10.6561
lfingers 7.12502
lthumb -0.551448 19.3229
rfemur -48.0251 -17.6293 13.0092
rtibia 89.1136
rfoot -19.4394 -9.00253
rtoes -35.4682
lfemur -22.551 -1.37978 -21.679
ltibia 58.3688
lfoot -34.4242 2.98723
ltoes -7.47792
321
root 0.961301 15.9225 -42.4746 200.695 -4.68335 -187.258
lowerback 19.6237 0.461089 -8.97437
upperback 0.40882 -1.97493 -1.97326
thorax -10.4036 -0.677415 3.50374
lowerneck -18.2413 -5.46663 -6.8047
upperneck 1.97681 -6.87597 9.17854
head 4.05623 -3.14484 3.32439
rclavicle 2.80286e-014 2.44505e-014
rhumerus -50.3752 -3.55247 -82.8235
rradius 57.3588
rwrist -14.7635
rhand -27.5042 -4.33111
rfingers 7.12502
rthumb -0.907084 -34.3089
lclavicle 2.80286e-014 2.44505e-014
lhumerus -26.3008 -8.73159 90.6194
lradius 95.4308
lwrist 3.33814
lhand -27.5591 -11.096
lfingers 7.12502
lthumb -0.960097 18.8816
rfemur -51.0855 -18.1416 13.2987
rtibia 91.677
rfoot -19.9245 -8.51988
rtoes -35.4913
lfemur -22.2136 -1.72632 -22.1954
ltibia 58.2233
lfoot -35.2602 3.87923
ltoes -7.44374
322
root 0.950517 15.8427 -42.5915 201.066 -4.16595 -187.352
lowerback 20.1078 0.616339 -9.07518
upperback 0.652607 -1.88693 -2.09665
thorax -10.4148 -0.657083 3.41173
lowerneck -18.1688 -5.46199 -7.01663
upperneck 1.01461 -6.85145 9.36937
head 3.76134 -3.1716 3.42906
rclavicle 6.4605e-015 -2.18663e-015
rhumerus -50.6536 -4.21982 -82.3941
rradius 55.7223
rwrist -15.6109
rhand -27.4375 -4.90858
rfingers 7.12502
rthumb -0.842613 -34.8867
lclavicle 6.4605e-015 -2.18663e-015
lhumerus -25.0197 -9.02779 90.998
lradius 96.8809
lwrist 3.15195
lhand -27.9755 -11.515
lfingers 7.12502
lthumb -1.3623 18.4604
rfemur -54.2087 -18.5456 13.9189
rtibia 93.8398
rfoot -20.2969 -8.24124
rtoes -35.5009
lfemur -21.8685 -1.97627 -22.5373
ltibia 58.0482
lfoot -36.0216 4.69553
ltoes -7.46236
323
root 0.938357 15.772 -42.7181 201.448 -3.67119 -187.307
lowerback 20.5437 0.737978 -8.9856
upperback 0.898652 -1.78363 -2.17236
thorax -10.3991 -0.636846 3.25851
lowerneck -18.1145 -5.45353 -7.2588
upperneck 0.129553 -6.81848 9.5533
head 3.49394 -3.19288 3.53691
rclavicle 1.42131e-014 -4.17448e-015
rhumerus -50.9208 -4.74267 -81.9986
rradius 54.2105
rwrist -16.1898
rhand -27.5306 -5.30245
rfingers 7.12502
rthumb -0.932535 -35.2802
lclavicle 1.42131e-014 -4.17448e-015
lhumerus -23.7803 -9.31335 91.3466
lradius 98.1696
lwrist 2.97424
lhand -28.3594 -11.9009
lfingers 7.12502
lthumb -1.73305 18.0718
rfemur -57.3534 -18.8436 14.8333
rtibia 95.5635
rfoot -20.5733 -8.14347
rtoes -35.5445
lfemur -21.4922 -2.14757 -22.7315
ltibia 57.8006
lfoot -36.6937 5.43673
ltoes -7.52637
324
root 0.926812 15.711 -42.8533 201.849 -3.20028 -187.174
lowerback 20.9836 0.829655 -8.78125
upperback 1.12588 -1.68411 -2.20341
thorax -10.4053 -0.618898 3.08989
lowerneck -18.1029 -5.43657 -7.51368
upperneck -0.647622 -6.77092 9.70467
head 3.26437 -3.20421 3.63688
rclavicle -8.74653e-015 2.82274e-014
rhumerus -51.2304 -5.09197 -81.653
rradius 52.9348
rwrist -16.4541
rhand -27.7615 -5.49283
rfingers 7.12502
rthumb -1.15559 -35.4694
lclavicle -8.74653e-015 2.82274e-014
lhumerus -22.6414 -9.56282 91.6682
lradius 99.2963
lwrist 2.79889
lhand -28.6858 -12.2316
lfingers 7.12502
lthumb -2.04827 17.7383
rfemur -60.512 -19.021 15.9829
rtibia 96.8292
rfoot -20.7617 -8.18636
rtoes -35.6005
lfemur -21.0818 -2.24886 -22.8233
ltibia 57.4455
lfoot -37.2514 6.09788
ltoes -7.64852
325
root 0.915584 15.6608 -42.9994 202.261 -2.77128 -187.007
lowerback 21.4494 0.891908 -8.4917
upperback 1.33171 -1.59798 -2.19884
thorax -10.4469 -0.606298 2.91575
lowerneck -18.121 -5.41805 -7.77501
upperneck -1.33684 -6.71828 9.81415
head 3.06422 -3.21092 3.72443
rclavicle -3.97569e-016 3.99557e-014
rhumerus -51.6227 -5.27656 -81.3483
rradius 51.9852
rwrist -16.4051
rhand -28.084 -5.46078
rfingers 7.12502
rthumb -1.46703 -35.4355
lclavicle -3.97569e-016 3.99557e-014
lhumerus -21.6417 -9.79224 91.9725
lradius 100.255
lwrist 2.61464
lhand -28.9381 -12.4765
lfingers 7.12502
lthumb -2.29197 17.491
rfemur -63.6144 -19.1109 17.2811
rtibia 97.6157
rfoot -20.9075 -8.29948
rtoes -35.6784
lfemur -20.5986 -2.31307 -22.8639
ltibia 56.9435
lfoot -37.6801 6.67179
ltoes -7.80179
326
root 0.905624 15.6211 -43.1557 202.701 -2.36688 -186.858
lowerback 21.9198 0.932542 -8.18704
upperback 1.52658 -1.53107 -2.1675
thorax -10.4988 -0.601161 2.76745
lowerneck -18.1689 -5.3924 -8.02731
upperneck -1.98848 -6.65774 9.87625
head 2.87679 -3.21419 3.79607
rclavicle 2.127e-014 1.53064e-014
rhumerus -52.08 -5.31539 -81.0846
rradius 51.4178
rwrist -16.0986
rhand -28.4124 -5.24278
rfingers 7.12502
rthumb -1.78418 -35.2151
lclavicle 2.127e-014 1.53064e-014
lhumerus -20.7765 -10.0002 92.253
lradius 101.048
lwrist 2.4178
lhand -29.1163 -12.5981
lfingers 7.12502
lthumb -2.46398 17.3674
rfemur -66.6621 -19.1111 18.6491
rtibia 97.9248
rfoot -21.0131 -8.41437
rtoes -35.775
lfemur -20.0541 -2.35035 -22.9086
ltibia 56.2701
lfoot -37.9598 7.14839
ltoes -7.97915
